<svg xmlns="http://www.w3.org/2000/svg" viewBox="0 0 1905.48 550.87"><defs><style>.cls-1{isolation:isolate;}.cls-11,.cls-2{fill:#dbdbdb;}.cls-16,.cls-17,.cls-19,.cls-2,.cls-21,.cls-22,.cls-23{mix-blend-mode:multiply;}.cls-22,.cls-3{fill:#8ccefa;}.cls-14,.cls-4{fill:#3282b8;}.cls-5{fill:#fff;}.cls-21,.cls-23,.cls-6{fill:#bbe1fa;}.cls-10,.cls-13,.cls-7{fill:none;stroke-miterlimit:10;}.cls-7{stroke:#0f4c75;}.cls-15,.cls-8{fill:#53a8e0;}.cls-9{fill:#0f4c75;}.cls-10,.cls-13{stroke:#2c3e47;stroke-linecap:round;}.cls-12,.cls-16,.cls-17{fill:#e8c33f;}.cls-13{stroke-width:1.5px;}.cls-14,.cls-15,.cls-22{opacity:0.3;}.cls-16{opacity:0.7;}.cls-18,.cls-19{fill:#f07d9c;}.cls-19,.cls-23{opacity:0.5;}.cls-20{fill:#2c3e47;}</style></defs><title>banner</title><g class="cls-1"><g id="Layer_2" data-name="Layer 2"><g id="OBJECTS"><rect class="cls-2" x="542.57" y="116.85" width="111.89" height="143.64"/><rect class="cls-3" x="547.23" y="112.2" width="111.89" height="143.64"/><rect class="cls-4" x="567.61" y="133.37" width="15.61" height="15.61"/><polygon class="cls-5" points="567.61 138.08 575.42 144.36 588.26 127.53 576.49 148.97 564.72 142.34 567.61 138.08"/><rect class="cls-4" x="596.12" y="133.37" width="45.5" height="3.34"/><rect class="cls-4" x="596.12" y="141.17" width="35.86" height="3.34"/><rect class="cls-4" x="567.61" y="162.88" width="15.61" height="15.61"/><polygon class="cls-5" points="567.61 167.59 575.42 173.87 588.26 157.04 576.49 178.48 564.72 171.85 567.61 167.59"/><rect class="cls-4" x="596.12" y="162.88" width="45.5" height="3.34"/><rect class="cls-4" x="596.12" y="170.68" width="35.86" height="3.34"/><rect class="cls-4" x="567.61" y="192.39" width="15.61" height="15.61"/><polygon class="cls-5" points="567.61 197.1 575.42 203.38 588.26 186.55 576.49 208 564.72 201.36 567.61 197.1"/><rect class="cls-4" x="596.12" y="192.39" width="45.5" height="3.34"/><rect class="cls-4" x="596.12" y="200.19" width="35.86" height="3.34"/><rect class="cls-4" x="567.61" y="221.9" width="15.61" height="15.61"/><polygon class="cls-5" points="567.61 226.61 575.42 232.89 588.26 216.06 576.49 237.51 564.72 230.87 567.61 226.61"/><rect class="cls-4" x="596.12" y="221.9" width="45.5" height="3.34"/><rect class="cls-4" x="596.12" y="229.7" width="35.86" height="3.34"/><rect class="cls-2" x="427.3" y="213.21" width="167.84" height="102.36"/><rect class="cls-6" x="433" y="207.51" width="167.84" height="102.36"/><polyline class="cls-7" points="450.33 221.37 450.33 289.98 583.51 289.98"/><line class="cls-7" x1="450.33" y1="227.8" x2="443.53" y2="227.8"/><line class="cls-7" x1="450.33" y1="245.2" x2="443.53" y2="245.2"/><line class="cls-7" x1="450.33" y1="262.61" x2="443.53" y2="262.61"/><line class="cls-7" x1="450.33" y1="280.02" x2="443.53" y2="280.02"/><line class="cls-7" x1="510.13" y1="296.98" x2="510.13" y2="290.17"/><line class="cls-7" x1="527.26" y1="296.98" x2="527.26" y2="290.17"/><line class="cls-7" x1="544.38" y1="296.98" x2="544.38" y2="290.17"/><line class="cls-7" x1="561.5" y1="296.98" x2="561.5" y2="290.17"/><line class="cls-7" x1="578.62" y1="296.98" x2="578.62" y2="290.17"/><line class="cls-7" x1="492.73" y1="296.98" x2="492.73" y2="290.17"/><line class="cls-7" x1="475.32" y1="296.98" x2="475.32" y2="290.17"/><line class="cls-7" x1="457.92" y1="296.98" x2="457.92" y2="290.17"/><polyline class="cls-7" points="450.33 235.37 475.32 262.78 510.13 245.95 544.38 275.48 578.62 232.72"/><path class="cls-8" d="M481.06,262.78a5.74,5.74,0,1,1-5.74-5.74A5.74,5.74,0,0,1,481.06,262.78Z"/><circle class="cls-8" cx="510.13" cy="246.04" r="5.74"/><circle class="cls-8" cx="544.38" cy="275.48" r="5.74"/><path class="cls-8" d="M584.36,232.72a5.74,5.74,0,1,1-5.74-5.74A5.74,5.74,0,0,1,584.36,232.72Z"/><rect class="cls-2" x="1366.7" y="84.66" width="138.58" height="199.84" transform="translate(1251.41 1620.56) rotate(-90)"/><rect class="cls-6" x="1372.79" y="78.57" width="138.58" height="199.84" transform="translate(1263.59 1620.56) rotate(-90)"/><rect class="cls-9" x="1368.23" y="162.72" width="27.65" height="68.39"/><rect class="cls-4" x="1408.25" y="180.67" width="27.65" height="50.44"/><rect class="cls-8" x="1448.26" y="150.59" width="27.65" height="80.52"/><rect class="cls-3" x="1488.28" y="134.59" width="27.65" height="96.52"/><polyline class="cls-10" points="1360.35 124.4 1360.35 231.11 1523.81 231.11"/><polygon class="cls-6" points="139.79 193.63 122.59 217.51 139.79 217.51 156.99 217.51 139.79 193.63"/><polygon class="cls-6" points="139.79 236.46 122.59 260.35 139.79 260.35 156.99 260.35 139.79 236.46"/><polygon class="cls-6" points="139.79 279.29 122.59 303.18 139.79 303.18 156.99 303.18 139.79 279.29"/><polygon class="cls-6" points="139.79 322.12 122.59 346.01 139.79 346.01 156.99 346.01 139.79 322.12"/><polygon class="cls-6" points="1870.92 473.97 1888.12 450.08 1870.92 450.08 1853.72 450.08 1870.92 473.97"/><polygon class="cls-6" points="1870.92 431.13 1888.12 407.25 1870.92 407.25 1853.72 407.25 1870.92 431.13"/><polygon class="cls-6" points="1870.92 388.3 1888.12 364.42 1870.92 364.42 1853.72 364.42 1870.92 388.3"/><polygon class="cls-6" points="1870.92 345.47 1888.12 321.58 1870.92 321.58 1853.72 321.58 1870.92 345.47"/><circle class="cls-11" cx="664.85" cy="420.45" r="40.04" transform="translate(142.13 1008.3) rotate(-80.67)"/><circle class="cls-12" cx="670.94" cy="414.36" r="40.04" transform="translate(115.74 974.37) rotate(-76.95)"/><path class="cls-12" d="M1664.3,286.19a63.64,63.64,0,1,1,63.64-63.64A63.71,63.71,0,0,1,1664.3,286.19Zm0-112.75a49.12,49.12,0,1,0,49.12,49.11A49.16,49.16,0,0,0,1664.3,173.44Z"/><path class="cls-12" d="M1664.3,261.68a39.13,39.13,0,1,1,39.13-39.13A39.17,39.17,0,0,1,1664.3,261.68Zm0-63.73a24.61,24.61,0,1,0,24.6,24.6A24.63,24.63,0,0,0,1664.3,198Z"/><circle class="cls-12" cx="1664.3" cy="222.55" r="13.3"/><line class="cls-13" x1="1664.29" y1="222.54" x2="1735.2" y2="151.62"/><polyline class="cls-13" points="1675.44 223.38 1664.29 222.54 1663.02 211.42"/><polyline class="cls-13" points="1735.88 162.23 1725.39 161.43 1724.14 150.5"/><polyline class="cls-13" points="1740.85 157.26 1730.36 156.46 1729.11 145.52"/><path class="cls-8" d="M1372.38,346.4h92.91a10,10,0,0,1,10,10.05v45.64a10,10,0,0,1-10,10h-12.83l7.4,19.35L1436,412.13h-63.58a10,10,0,0,1-10-10V356.45A10,10,0,0,1,1372.38,346.4Z"/><path class="cls-5" d="M1443.82,386.5a5.65,5.65,0,1,0,5.65-5.65A5.65,5.65,0,0,0,1443.82,386.5Z"/><path class="cls-5" d="M1413.19,386.5a5.65,5.65,0,1,0,5.65-5.65A5.65,5.65,0,0,0,1413.19,386.5Z"/><path class="cls-5" d="M1382.55,386.5a5.66,5.66,0,1,0,5.66-5.65A5.65,5.65,0,0,0,1382.55,386.5Z"/><path class="cls-14" d="M548,24.38l-6-11.32-6.34,3.35a27.74,27.74,0,0,0-7-5.78l2.12-6.86L518.52,0,516.4,6.85a27.73,27.73,0,0,0-9,.85L504,1.36l-11.32,6,3.35,6.33a27.92,27.92,0,0,0-5.78,7l-6.86-2.11L479.64,30.8l6.85,2.11a28,28,0,0,0,.84,9L481,45.29l6,11.32,6.33-3.35a28,28,0,0,0,7,5.79L498.2,65.9l12.23,3.77,2.12-6.85a28,28,0,0,0,9-.84l3.35,6.33,11.32-6L532.9,56a27.78,27.78,0,0,0,5.79-7l6.85,2.12,3.77-12.24-6.85-2.11a28,28,0,0,0-.84-9ZM520.69,46.59a13.3,13.3,0,1,1,5.54-18A13.28,13.28,0,0,1,520.69,46.59Z"/><path class="cls-14" d="M68.31,418.29l-6-11.32L56,410.32a27.74,27.74,0,0,0-7-5.78l2.12-6.86-12.24-3.77-2.11,6.85a27.76,27.76,0,0,0-9,.85l-3.35-6.34-11.32,6,3.35,6.33a27.92,27.92,0,0,0-5.78,7l-6.86-2.11L0,424.71l6.85,2.11a27.7,27.7,0,0,0,.85,9L1.36,439.2l6,11.32,6.33-3.35a28,28,0,0,0,7,5.79l-2.11,6.85,12.24,3.77,2.11-6.85a28,28,0,0,0,9-.84l3.35,6.33,11.32-6-3.35-6.34a27.61,27.61,0,0,0,5.79-7L65.9,445l3.77-12.24-6.85-2.11a28,28,0,0,0-.84-9ZM41.05,440.51a13.3,13.3,0,1,1,5.54-18A13.3,13.3,0,0,1,41.05,440.51Z"/><path class="cls-14" d="M1658.66,24.38l-6-11.32-6.33,3.35a27.92,27.92,0,0,0-7-5.78l2.11-6.86L1629.22,0l-2.11,6.85a27.7,27.7,0,0,0-9,.85l-3.35-6.34-11.32,6,3.34,6.33a28.13,28.13,0,0,0-5.78,7l-6.85-2.11-3.78,12.24,6.86,2.11a27.69,27.69,0,0,0,.84,9l-6.34,3.35,6,11.32,6.33-3.35a28,28,0,0,0,7,5.79l-2.11,6.85,12.24,3.77,2.11-6.85a28.06,28.06,0,0,0,9-.84l3.34,6.33,11.33-6L1643.61,56a27.74,27.74,0,0,0,5.78-7l6.85,2.12L1660,38.88l-6.86-2.11a27.75,27.75,0,0,0-.84-9ZM1631.4,46.59a13.3,13.3,0,1,1,5.54-18A13.29,13.29,0,0,1,1631.4,46.59Z"/><path class="cls-14" d="M1281.65,505.58l-6-11.32-6.34,3.35a27.74,27.74,0,0,0-7-5.79l2.11-6.85-12.24-3.77-2.11,6.85a28,28,0,0,0-9,.84l-3.34-6.33-11.33,6,3.35,6.34a27.57,27.57,0,0,0-5.78,7l-6.85-2.12L1213.34,512l6.85,2.11a28,28,0,0,0,.85,9l-6.34,3.35,6,11.32,6.33-3.35a27.92,27.92,0,0,0,7,5.78l-2.11,6.85,12.24,3.78,2.11-6.85a27.7,27.7,0,0,0,9-.85l3.35,6.34,11.32-6-3.34-6.33a28.13,28.13,0,0,0,5.78-7l6.85,2.11,3.78-12.24-6.86-2.11a27.69,27.69,0,0,0-.84-9Zm-27.26,22.21a13.3,13.3,0,1,1,5.55-18A13.3,13.3,0,0,1,1254.39,527.79Z"/><path class="cls-15" d="M488.5,98.42l-3.6-6.82-3.82,2a16.67,16.67,0,0,0-4.21-3.49L478.14,86l-7.38-2.27-1.27,4.13a16.74,16.74,0,0,0-5.44.5l-2-3.81-6.82,3.6,2,3.82a16.84,16.84,0,0,0-3.48,4.21l-4.13-1.27-2.28,7.38,4.13,1.27A17,17,0,0,0,452,109l-3.82,2,3.61,6.82,3.82-2a16.84,16.84,0,0,0,4.21,3.48l-1.27,4.13,7.37,2.28,1.28-4.13a17,17,0,0,0,5.44-.51l2,3.82,6.82-3.61-2-3.82a16.67,16.67,0,0,0,3.49-4.21l4.13,1.27,2.27-7.37-4.13-1.28a16.76,16.76,0,0,0-.5-5.44Zm-16.43,13.39A8,8,0,1,1,475.41,101,8,8,0,0,1,472.07,111.81Z"/><path class="cls-15" d="M1316.73,440.87l-3.61-6.83-3.82,2a16.84,16.84,0,0,0-4.21-3.48l1.27-4.13-7.37-2.28-1.28,4.13a17,17,0,0,0-5.44.51l-2-3.82-6.82,3.61,2,3.82a16.67,16.67,0,0,0-3.49,4.21l-4.13-1.28-2.27,7.38,4.13,1.27a16.8,16.8,0,0,0,.5,5.45l-3.81,2,3.6,6.82,3.82-2a16.89,16.89,0,0,0,4.21,3.49l-1.27,4.13,7.38,2.27,1.27-4.13a16.5,16.5,0,0,0,5.44-.51l2,3.82,6.82-3.61-2-3.81a16.89,16.89,0,0,0,3.48-4.22l4.13,1.28,2.28-7.38-4.13-1.27a17.11,17.11,0,0,0-.51-5.45Zm-16.43,13.38a8,8,0,1,1,3.34-10.83A8,8,0,0,1,1300.3,454.25Z"/><path class="cls-5" d="M930.66,288.1a3.21,3.21,0,1,1-3.2-3.21A3.2,3.2,0,0,1,930.66,288.1Z"/><path class="cls-12" d="M238.28,514.84l9.32-57.55c-71.49,8.08-46-44.14-46-44.14l43.91-89.63A57.44,57.44,0,0,1,279.86,294l31.1-9.77h33l18.78,5.47a60.89,60.89,0,0,1,36.58,29.57L449,411.4,494.26,344,530,366.36c-24.64,40.33-33.44,64.22-62.87,101.33-4.36,5.5-9,10.91-14.92,14.71-17.83,11.45-30.93-2.13-42.59-15a329,329,0,0,1-23-28.72l8.08,76.2Z"/><path class="cls-16" d="M307.28,439.1s-21.33,30.08-63.86,44l4.18-25.82S287.07,451.87,307.28,439.1Z"/><path class="cls-17" d="M426.91,424.82l-19.85-92.55a7,7,0,0,0-8.34-5.39l-3.56.76a2.13,2.13,0,0,0-.25,0l-70.15,15a7,7,0,0,0-5.4,8.34l7.29,34-1.7-7.77-6.3,1.42a8.67,8.67,0,0,0-5,5.83l-2.82,16.95-11,2.14L303.3,429l14.08-5a72,72,0,0,0,17.8.76l4,18.79a7,7,0,0,0,8.34,5.4l3.56-.77.26,0,70.14-15A7,7,0,0,0,426.91,424.82Z"/><line class="cls-10" x1="391.64" y1="485.31" x2="383.72" y2="409.02"/><path class="cls-17" d="M258.61,389.37s.48,14,5,16.94l-8,1.75Z"/><path class="cls-8" d="M301.82,399.54l-11.21,1.73,5.6,43.49s9-3.56,11.07-5.66Z"/><path class="cls-9" d="M291.58,290.33s14.94,19.11,40.68,19.11,27.22-20.66,27.22-20.66l-15.57-4.54H311Z"/><path class="cls-4" d="M301.82,287.11a42,42,0,0,0,30.44,12.75c19.54,0,19.64-13.29,19.64-13.29l-8-2.33H311Z"/><path class="cls-8" d="M311,284.24c5,15.12,13.61,22.45,13.61,22.45,1-12.41,7.69-15.51,7.69-15.51Z"/><path class="cls-8" d="M332.26,291.18s10.87.82,11.65,12.45c0,0,2.7-9.95,0-19.39Z"/><path class="cls-18" d="M311,217.3v66.94s12.11,6.94,21.3,6.94,11.65-6.94,11.65-6.94V217.3Z"/><path class="cls-19" d="M311,250.2c.05.14,7.76,20.91,33,24.48V217.3H311Z"/><path class="cls-18" d="M320.87,172.25l9.9,14.8c-1.2.87-2.34,1.73-3.39,2.61-.55.44-1.06.88-1.56,1.33-1.12,1-2.18,2-3.13,3-.32.32-.62.65-.91,1a49.87,49.87,0,0,0-3.85,4.79q-.31.42-.57.84c-.21.29-.4.57-.57.86s-.53.82-.77,1.23-.41.71-.6,1c-.27.5-.54,1-.77,1.47s-.35.7-.51,1.05-.36.75-.52,1.11l-.41,1a29.87,29.87,0,0,0-2.25,8.93v.06a129,129,0,0,1-9.57-11.19A14.72,14.72,0,0,0,311,232l.45,0a41.88,41.88,0,0,0,83.3-6.19V164C373.38,179,320.87,172.25,320.87,172.25Z"/><path class="cls-20" d="M394.71,164c-21.33,15-73.84,8.24-73.84,8.24l9.9,14.8c-1.2.87-2.34,1.73-3.39,2.61-.55.44-1.06.88-1.56,1.33-1.12,1-2.18,2-3.13,3-.32.32-.62.63-.91,1a49.87,49.87,0,0,0-3.85,4.79q-.31.42-.57.84c-.21.29-.4.58-.57.86-.28.43-.53.82-.77,1.23l-.6,1c-.27.5-.54,1-.77,1.47a11.19,11.19,0,0,0-.51,1.05c-.2.38-.36.75-.52,1.11l-.41,1a29.87,29.87,0,0,0-2.25,8.93v.06a129,129,0,0,1-9.57-11.19A14.72,14.72,0,0,0,311,232v13.3s-31-20.6-28.43-73.05c.59-8.27,1.87-13,5.5-18.65,15.87-24.47,36.2-14.13,36.2-14.13,32-14.48,77.54-21,79.3,6.81C404,154.22,400.52,159.93,394.71,164Z"/><path class="cls-20" d="M356.65,207.51a5.6,5.6,0,1,1-5.59-5.59A5.59,5.59,0,0,1,356.65,207.51Z"/><path class="cls-20" d="M386.63,207.51a5.59,5.59,0,1,1-5.59-5.59A5.59,5.59,0,0,1,386.63,207.51Z"/><path class="cls-10" d="M338.58,198.17a16.65,16.65,0,0,1,18.25-3.92"/><path class="cls-10" d="M373.58,194.81a13.39,13.39,0,0,1,17.28,3.38"/><path class="cls-10" d="M378.12,238.6a38.72,38.72,0,0,1-27.65-3.72"/><path class="cls-10" d="M371.89,220.16a13.18,13.18,0,0,1,5.95-.2c1.93.54,3.69,2.28,3.54,4.28a4.49,4.49,0,0,1-3.17,3.61,13.38,13.38,0,0,1-5,.38"/><path class="cls-18" d="M494.26,344l12-17.82-3.58-13.26a15.52,15.52,0,0,1-.25-7l3.44-17.65A10.31,10.31,0,0,1,516.7,280l10.31.75,25.25-36.59a5.48,5.48,0,0,1,7.57-1.43h0a5.48,5.48,0,0,1,1.88,6.89l-16.46,34.65a14.78,14.78,0,0,1,11,7.81s7.46-.87,11.66,7.81c0,0,6.06,0,6.06,5.42,0,0-11.19,36.37-41,34l-13,20.72Z"/><path class="cls-10" d="M516.7,280,537,281.44s3.76,15.4-18.31,14c0,0,26.58,9.2,16.86,31.58"/><path class="cls-10" d="M545.25,284.24a157.43,157.43,0,0,0-12.32,20.94"/><path class="cls-10" d="M553,298.44s-7.51,18.41-15.49,16.9"/><path class="cls-10" d="M564.9,303.88s-17.21,29.55-21.07,9"/><path class="cls-10" d="M555.3,316.58c0,10.46,9.6,6.27,9.6,6.27s6.52-8.92,8.54-15.91"/><rect class="cls-8" x="330.36" y="329.92" width="85.79" height="108.7" rx="3.46" ry="3.46" transform="translate(818.8 681.73) rotate(167.9)"/><rect class="cls-6" x="334.18" y="329.13" width="85.79" height="108.7" rx="3.46" ry="3.46" transform="translate(826.18 679.36) rotate(167.9)"/><path class="cls-21" d="M335.38,412.22c7.46-1.46,16.49-3.21,16.9-3.2.7,0,26.74,1.91,26.74,1.91s-27.38,13.87-40.58,15.54Z"/><path class="cls-18" d="M319.41,420l-14.08,5-3.51-25.41,11-2.14,2.82-16.95a8.67,8.67,0,0,1,5-5.83l6.3-1.42,1.7,7.79s25.7-3,35.64-8.41c4.27-2.33,7-2.29,8.66-1.47a3.76,3.76,0,0,1,1.1,5.79c-2.19,2.63-6.87,7.11-15.62,11.14,0,0,16.44-7.85,23.19-12.7,0,0,5.55-4.17,8.51,1.75,3.85,7.69-26,18.76-26,18.76s13.48-4.62,16-5.5c2.07-.72,7.89-4.93,10.26-.58,3.59,6.61-16,12.59-16,12.59a34.53,34.53,0,0,0,8.11-1.82,4.09,4.09,0,0,1,5.07,2.15h0a4.1,4.1,0,0,1-2,5.48C373.67,413.68,342.41,424.26,319.41,420Z"/><path class="cls-19" d="M301.82,399.54s4.14,14.48,13,22L305.33,425Z"/><path class="cls-10" d="M374.08,376.9s-7.85,8.66-17.68,12.47"/><path class="cls-10" d="M386.57,384.27s-14.15,9.1-27.09,13.64"/><path class="cls-10" d="M388,395.85s-9.85,6.73-26.64,10.46"/><path class="cls-10" d="M338.69,379.54s-10.11,1.59-15.09,2.21"/><path class="cls-10" d="M222,417.65c29.84-11.19,79.86-18.11,79.86-18.11l5.46,39.56c-21.21,13.29-59.68,18.19-59.68,18.19s-33.38,6.48-46.84-11.68"/><line class="cls-10" x1="263.05" y1="361.95" x2="255.58" y2="408.06"/><polygon class="cls-8" points="530.01 366.36 494.26 343.98 488.75 352.18 524.71 375.18 530.01 366.36"/><path class="cls-19" d="M499.19,347.07s14.2,7.56,25.38,5.58L519.92,360Z"/><polygon class="cls-8" points="1749.7 500.75 1520.48 500.75 1543.02 342.4 1772.24 342.4 1749.7 500.75"/><polygon class="cls-3" points="1749.7 500.75 1527.4 500.75 1549.94 342.4 1772.24 342.4 1749.7 500.75"/><path class="cls-22" d="M1537.65,428.75s32.2,65.68,174.78,72h-185Z"/><rect class="cls-4" x="1400.64" y="500.75" width="349.06" height="14.09"/><rect class="cls-8" x="1520.48" y="500.75" width="229.22" height="14.09"/><rect class="cls-20" x="1411.04" y="506.01" width="9.82" height="3.56"/><rect class="cls-20" x="1427.13" y="506.01" width="9.82" height="3.56"/><rect class="cls-9" x="1721.67" y="506.01" width="9.82" height="3.56"/><rect class="cls-9" x="1702.6" y="506.01" width="9.82" height="3.56"/><rect class="cls-9" x="1683.53" y="506.01" width="9.82" height="3.56"/><path class="cls-20" d="M1485.88,507.79a1.78,1.78,0,1,1-1.78-1.78A1.78,1.78,0,0,1,1485.88,507.79Z"/><path class="cls-20" d="M1494.7,507.79a1.79,1.79,0,1,1-1.78-1.78A1.79,1.79,0,0,1,1494.7,507.79Z"/><path class="cls-20" d="M1503.51,507.79a1.78,1.78,0,1,1-1.78-1.78A1.79,1.79,0,0,1,1503.51,507.79Z"/><path class="cls-6" d="M1650.63,396.31a26.42,26.42,0,0,0-25.24,34.13A15.39,15.39,0,0,1,1649,449c.54,0,1.08.08,1.63.08a26.39,26.39,0,0,0,0-52.78Z"/><path class="cls-10" d="M437.31,428.75,494.26,344,530,366.36s-21,38.17-32.24,56.37"/><rect class="cls-6" x="1792.67" y="92.61" width="112.8" height="112.8"/><rect class="cls-8" x="1792.67" y="92.61" width="112.8" height="30.89"/><rect class="cls-9" x="1799.78" y="85.98" width="5.58" height="13.25"/><rect class="cls-9" x="1818.38" y="85.98" width="5.58" height="13.25"/><rect class="cls-9" x="1836.98" y="85.98" width="5.58" height="13.25"/><rect class="cls-9" x="1855.59" y="85.98" width="5.58" height="13.25"/><rect class="cls-9" x="1874.19" y="85.98" width="5.58" height="13.25"/><rect class="cls-9" x="1892.79" y="85.98" width="5.58" height="13.25"/><rect class="cls-3" x="1805.35" y="131.25" width="14.9" height="14.9"/><rect class="cls-3" x="1829.53" y="131.25" width="14.9" height="14.9"/><rect class="cls-3" x="1853.72" y="131.25" width="14.9" height="14.9"/><rect class="cls-3" x="1877.9" y="131.25" width="14.9" height="14.9"/><rect class="cls-3" x="1805.35" y="154.1" width="14.9" height="14.9"/><rect class="cls-3" x="1829.53" y="154.1" width="14.9" height="14.9"/><rect class="cls-3" x="1853.72" y="154.1" width="14.9" height="14.9"/><rect class="cls-3" x="1877.9" y="154.1" width="14.9" height="14.9"/><rect class="cls-3" x="1805.35" y="176.94" width="14.9" height="14.9"/><rect class="cls-3" x="1829.53" y="176.94" width="14.9" height="14.9"/><rect class="cls-3" x="1853.72" y="176.94" width="14.9" height="14.9"/><rect class="cls-3" x="1877.9" y="176.94" width="14.9" height="14.9"/><path class="cls-23" d="M1792.67,92.61s21.61,88.68,112.81,112.8H1792.67Z"/></g></g></g></svg>