<svg xmlns="http://www.w3.org/2000/svg" viewBox="0 0 1227.66 1325.93"><defs><style>.cls-1{fill:#1585ff;stroke:#1585ff;stroke-miterlimit:10;}</style></defs><title>1000Asset 1</title><g id="Layer_2" data-name="Layer 2"><g id="Layer_1-2" data-name="Layer 1"><path class="cls-1" d="M130.22,256.52,538.8,20.6a150,150,0,0,1,150,0l408.66,235.92c33.35,19.25,33.34,67.38,0,86.61L688.76,578.8a150,150,0,0,1-149.86,0L130.24,343.14C96.89,323.9,96.87,275.77,130.22,256.52Z"/><path class="cls-1" d="M743.9,674l408.26-235.43c33.33-19.22,75,4.83,75,43.31l0,471.1a150,150,0,0,1-75,129.91L743.83,1318.65c-33.33,19.25-75-4.81-75-43.3V803.92A150,150,0,0,1,743.9,674Z"/><path class="cls-1" d="M.52,953l0-471.18c0-38.48,41.64-62.54,75-43.31L483.76,674a150,150,0,0,1,75.07,129.94v471.41c0,38.49-41.66,62.54-75,43.3l-408.3-235.7A150,150,0,0,1,.52,953Z"/></g></g></svg>